<svg width="25" height="24" viewBox="0 0 25 24" fill="none" xmlns="http://www.w3.org/2000/svg">
<path d="M20.8479 23.7723H4.87087C2.66307 23.7723 0.859375 22.0169 0.859375 19.8682V4.31911C0.859375 2.17043 2.66307 0.415039 4.87087 0.415039H20.8479C23.0557 0.415039 24.8594 2.17043 24.8594 4.31911V19.8682C24.8594 22.0265 23.0656 23.7723 20.8479 23.7723Z" fill="black"/>
<path d="M12.8633 18.0948C11.2173 18.0948 9.66986 17.4714 8.50682 16.3394C7.34378 15.2076 6.70312 13.7016 6.70312 12.0997C6.70312 10.4978 7.34378 8.99178 8.50682 7.85989C9.66986 6.72799 11.2173 6.10449 12.8633 6.10449C14.5093 6.10449 16.0567 6.72799 17.2198 7.85989C18.3828 8.99178 19.0235 10.4978 19.0235 12.0997C19.0235 13.7016 18.3828 15.2076 17.2198 16.3394C16.0469 17.4714 14.5093 18.0948 12.8633 18.0948ZM12.8633 7.38027C10.1922 7.38027 8.01401 9.49058 8.01401 12.0997C8.01401 14.6992 10.1824 16.8191 12.8633 16.8191C15.5343 16.8191 17.7126 14.7088 17.7126 12.0997C17.7027 9.50017 15.5343 7.38027 12.8633 7.38027Z" fill="#F4F4F4"/>
<path d="M20.2258 5.9067C20.879 5.9067 21.4086 5.39133 21.4086 4.7556C21.4086 4.11985 20.879 3.60449 20.2258 3.60449C19.5726 3.60449 19.043 4.11985 19.043 4.7556C19.043 5.39133 19.5726 5.9067 20.2258 5.9067Z" fill="#F4F4F4"/>
</svg>
