<svg width="24" height="23" viewBox="0 0 24 23" fill="none" xmlns="http://www.w3.org/2000/svg">
<path d="M23.5468 1.16934C23.1374 0.828901 22.4944 0.780191 21.8296 1.04195H21.8285C21.1292 1.31708 2.03537 9.34833 1.25808 9.6764C1.11671 9.72458 -0.118014 10.1763 0.00917604 11.1827C0.122706 12.09 1.11507 12.4657 1.23625 12.5091L6.09048 14.139C6.41258 15.1903 7.59978 19.0688 7.86228 19.8974C8.02608 20.4139 8.29298 21.0926 8.76078 21.2324C9.17128 21.3876 9.57958 21.2457 9.84378 21.0423L12.8116 18.343L17.6025 22.0069L17.7166 22.0738C18.0419 22.2152 18.3536 22.2858 18.6511 22.2858C18.8809 22.2858 19.1014 22.2436 19.3121 22.1589C20.0299 21.8699 20.317 21.1992 20.347 21.1232L23.9256 2.88274C24.144 1.90855 23.8405 1.41289 23.5468 1.16934ZM10.3716 14.791L8.73408 19.0731L7.09648 13.7204L19.6511 4.62078L10.3716 14.791Z" fill="black"/>
</svg>
