<svg width="24" height="17" viewBox="0 0 24 17" fill="none" xmlns="http://www.w3.org/2000/svg">
<path d="M12.5317 16.9777L7.60784 16.8855C6.0136 16.8534 4.41539 16.9175 2.85241 16.5846C0.474754 16.0872 0.306312 13.6485 0.130056 11.6028C-0.112807 8.72688 -0.0187875 5.79873 0.439526 2.9468C0.69826 1.34656 1.71648 0.39169 3.29112 0.287782C8.6067 -0.089316 13.9576 -0.0446259 19.2614 0.131304C19.8216 0.147432 20.3856 0.235581 20.9379 0.335919C23.6643 0.825297 23.7308 3.58896 23.9076 5.91544C24.0838 8.26594 24.0094 10.6285 23.6725 12.963C23.4022 14.8959 22.8851 16.5168 20.7028 16.6733C17.9686 16.8779 15.2971 17.0426 12.5551 16.9902C12.5553 16.9777 12.5395 16.9777 12.5317 16.9777ZM9.63694 12.0842C11.6974 10.8728 13.7186 9.6815 15.7673 8.47819C13.703 7.26674 11.6857 6.07549 9.63694 4.87218V12.0842Z" fill="#080808"/>
</svg>
