<svg width="15" height="12" viewBox="0 0 15 12" fill="none" xmlns="http://www.w3.org/2000/svg">
<path d="M14.2356 0.164969C13.9968 -0.0258369 13.6217 -0.0531371 13.2339 0.0935683H13.2333C12.8254 0.247768 1.6873 4.749 1.23388 4.93287C1.15141 4.95987 0.431159 5.21307 0.505353 5.77707C0.571579 6.2856 1.15046 6.4962 1.22114 6.52047L4.05278 7.434C4.24067 8.0232 4.9332 10.197 5.08633 10.6614C5.18188 10.9509 5.33757 11.3313 5.61045 11.4096C5.84991 11.4966 6.08809 11.4171 6.2422 11.3031L7.97342 9.7902L10.7681 11.8437L10.8347 11.8812C11.0244 11.9604 11.2063 12 11.3798 12C11.5138 12 11.6425 11.9763 11.7654 11.9289C12.1841 11.7669 12.3516 11.391 12.3691 11.3484L14.4566 1.12527C14.584 0.579268 14.4069 0.301469 14.2356 0.164969ZM6.55009 7.7994L5.59488 10.1994L4.63961 7.1994L11.9631 2.09937L6.55009 7.7994Z" fill="#F4F4F4"/>
</svg>
