<svg width="22" height="26" viewBox="0 0 22 26" fill="none" xmlns="http://www.w3.org/2000/svg">
<g clip-path="url(#clip0_956_248)">
<path d="M18.7826 3.15032C16.7192 1.08693 13.9206 -0.0722656 11.0026 -0.0722656C8.08452 -0.0722656 5.28597 1.08693 3.22258 3.15032C1.1592 5.2137 2.17413e-08 8.01225 0 10.9303C-2.17413e-08 13.8484 1.1592 16.6469 3.22258 18.7103L7.32258 22.8103C7.41582 22.9036 7.52651 22.9775 7.64833 23.028C7.77015 23.0784 7.90072 23.1044 8.03258 23.1044C8.16444 23.1044 8.29501 23.0784 8.41683 23.028C8.53865 22.9775 8.64934 22.9036 8.74258 22.8103C8.83582 22.7171 8.90978 22.6064 8.96024 22.4846C9.0107 22.3627 9.03667 22.2322 9.03667 22.1003C9.03667 21.9685 9.0107 21.8379 8.96024 21.7161C8.90978 21.5942 8.83582 21.4836 8.74258 21.3903L4.64258 17.2903C3.38279 16.0321 2.52451 14.4285 2.17633 12.6823C1.82816 10.9362 2.00574 9.12602 2.68659 7.48083C3.36745 5.83564 4.521 4.42938 6.00129 3.43995C7.48157 2.45052 9.22207 1.9224 11.0026 1.9224C12.7831 1.9224 14.5236 2.45052 16.0039 3.43995C17.4842 4.42938 18.6377 5.83564 19.3186 7.48083C19.9994 9.12602 20.177 10.9362 19.8288 12.6823C19.4807 14.4285 18.6224 16.0321 17.3626 17.2903L10.2926 24.3603C10.1989 24.4533 10.1245 24.5639 10.0737 24.6857C10.0229 24.8076 9.99678 24.9383 9.99678 25.0703C9.99678 25.2023 10.0229 25.333 10.0737 25.4549C10.1245 25.5767 10.1989 25.6874 10.2926 25.7803C10.3855 25.874 10.4961 25.9484 10.618 25.9992C10.7399 26.05 10.8706 26.0761 11.0026 26.0761C11.1346 26.0761 11.2653 26.05 11.3872 25.9992C11.509 25.9484 11.6196 25.874 11.7126 25.7803L18.7826 18.7103C19.8046 17.6888 20.6153 16.4759 21.1684 15.141C21.7215 13.8061 22.0062 12.3753 22.0062 10.9303C22.0062 9.48534 21.7215 8.05452 21.1684 6.71961C20.6153 5.38469 19.8046 4.17183 18.7826 3.15032Z" fill="black"/>
<path d="M16 11C16 10.0111 15.7068 9.0444 15.1574 8.22215C14.6079 7.39991 13.8271 6.75904 12.9134 6.3806C11.9998 6.00217 10.9945 5.90315 10.0246 6.09608C9.05465 6.289 8.16373 6.76521 7.46447 7.46447C6.76521 8.16373 6.289 9.05465 6.09608 10.0246C5.90315 10.9945 6.00217 11.9998 6.3806 12.9134C6.75904 13.8271 7.39991 14.6079 8.22215 15.1574C9.0444 15.7068 10.0111 16 11 16C12.3261 16 13.5979 15.4732 14.5355 14.5355C15.4732 13.5979 16 12.3261 16 11ZM8 11C8 10.4067 8.17595 9.82664 8.50559 9.33329C8.83524 8.83994 9.30377 8.45543 9.85195 8.22836C10.4001 8.0013 11.0033 7.94189 11.5853 8.05765C12.1672 8.1734 12.7018 8.45912 13.1213 8.87868C13.5409 9.29824 13.8266 9.83279 13.9424 10.4147C14.0581 10.9967 13.9987 11.5999 13.7716 12.1481C13.5446 12.6962 13.1601 13.1648 12.6667 13.4944C12.1734 13.8241 11.5933 14 11 14C10.2044 14 9.44129 13.6839 8.87868 13.1213C8.31607 12.5587 8 11.7957 8 11Z" fill="black"/>
</g>
<defs>
<clipPath id="clip0_956_248">
<rect width="22" height="26" fill="white"/>
</clipPath>
</defs>
</svg>
