<svg width="42" height="34" viewBox="0 0 42 34" fill="none" xmlns="http://www.w3.org/2000/svg">
<line y1="32.5" x2="42" y2="32.5" stroke="white" stroke-width="3"/>
<path d="M23.0363 3.26788C23.3068 3.00069 23.6711 2.85059 24.049 2.85059C24.427 2.85059 24.7876 3.00069 25.0517 3.26788L31.3889 9.68146C31.6529 9.94873 31.7986 10.3112 31.7941 10.6891C31.7896 11.067 31.6351 11.4295 31.3647 11.6967L24.8738 18.1103C24.6018 18.37 24.2401 18.5136 23.8664 18.5104C23.4927 18.5071 23.137 18.3572 22.8759 18.093C22.6148 17.8287 22.4692 17.4713 22.4704 17.0976C22.4716 16.7239 22.6196 16.3638 22.8825 16.095L26.7886 12.1143H13.2479C12.8698 12.1143 12.5091 11.9642 12.245 11.6969C11.9809 11.4296 11.8351 11.0671 11.8396 10.6891C11.8441 10.3111 11.9987 9.94859 12.2692 9.68131C12.5397 9.41402 12.904 9.26386 13.282 9.26386H26.8228L23.0121 5.28317C22.7481 5.0159 22.6024 4.65344 22.6069 4.27552C22.6114 3.8976 22.7659 3.53515 23.0363 3.26788Z" fill="#F4F4F4"/>
</svg>
